<svg width="320" height="320" viewBox="0 0 320 320" xmlns="http://www.w3.org/2000/svg">
  <g fill="none" stroke="#d4c8b4" stroke-width="1.4" opacity="0.7">
    <path d="M38 64h48v32H56l-18 18z" stroke-linejoin="round" />
    <path d="M230 52c12 0 22 10 22 22v28a22 22 0 01-22 22h-22l-18 18v-40c-12 0-22-10-22-22s10-28 40-28z" stroke-linecap="round" />
    <circle cx="86" cy="196" r="22" />
    <circle cx="254" cy="222" r="18" />
    <path d="M88 196l-12-12" stroke-linecap="round" />
    <path d="M232 222l-9-9" stroke-linecap="round" />
    <path d="M124 274c0-16 12-28 28-28s28 12 28 28-12 28-28 28-28-12-28-28z" />
    <path d="M132 274c0 12 8 20 20 20" stroke-linecap="round" />
    <path d="M182 138c0 21 17 38 38 38s38-17 38-38-17-38-38-38l-18 8-16-8c-4 0-4 6-4 8z" stroke-linejoin="round" />
    <path d="M218 128h24" stroke-linecap="round" />
    <path d="M218 144h16" stroke-linecap="round" />
    <path d="M54 244l16-32 16 32" stroke-linecap="round" />
    <path d="M70 228h12" stroke-linecap="round" />
    <circle cx="164" cy="94" r="10" />
    <circle cx="134" cy="86" r="6" />
    <circle cx="104" cy="286" r="6" />
    <circle cx="214" cy="266" r="6" />
    <path d="M34 138l18-18 18 18-18 18z" />
    <path d="M274 290l18-18 18 18-18 18z" />
  </g>
</svg>
